<svg id="Capa_1" enable-background="new 0 0 512 512" height="512" viewBox="0 0 512 512" width="512" xmlns="http://www.w3.org/2000/svg"><g><path d="m435.5 76.066h-94.186l4.486-8.247c15.56.132 20.919-20.41 7.638-28.011l-65.959-37.749c-13.506-7.728-28.477 7.842-20.115 21.048l-15.028 26.25-30.313 26.709h-145.523c-8.284 0-15 6.715-15 14.998v405.938c0 8.283 6.716 14.998 15 14.998h359c8.284 0 15-6.715 15-14.998v-405.938c0-8.283-6.716-14.998-15-14.998zm-142.962-36.55 26.316 15.061c-22.002 41.032-13.156 19.77-21.854 56.616l-42.114-24.102c31.611-28.385 13.831-8.667 37.652-47.575zm-201.038 66.546h136.144l20.183 11.551-22.852 39.917c-4.115 7.189-1.623 16.352 5.567 20.467 7.18 4.11 16.349 1.632 20.47-5.566l22.852-39.917c25.207 13.769 26.743 16.883 33.489 16.883 7.065 0 13.177-4.935 14.664-11.844l6.773-31.491h91.71v254.961h-105c-8.284 0-15 6.715-15 14.998v105.984h-209zm307.748 284.956-68.748 68.766v-68.766zm-48.545 90.987 69.797-69.816v69.816z"/><path d="m136 241.041h239c8.284 0 15-6.715 15-14.998s-6.716-14.998-15-14.998h-239c-8.284 0-15 6.715-15 14.998s6.716 14.998 15 14.998z"/><path d="m136 301.032h239c8.284 0 15-6.715 15-14.998s-6.716-14.998-15-14.998h-239c-8.284 0-15 6.715-15 14.998s6.716 14.998 15 14.998z"/><path d="m136 361.023h120c8.284 0 15-6.715 15-14.998s-6.716-14.998-15-14.998h-120c-8.284 0-15 6.715-15 14.998s6.716 14.998 15 14.998z"/><path d="m256 391.018h-120c-8.284 0-15 6.715-15 14.998s6.716 14.998 15 14.998h120c8.284 0 15-6.715 15-14.998s-6.716-14.998-15-14.998z"/></g></svg>